<mxfile host="app.diagrams.net" agent="Mozilla/5.0 (Windows NT 10.0; Win64; x64) AppleWebKit/537.36 (KHTML, like Gecko) Chrome/138.0.0.0 Safari/537.36" version="28.0.6">
  <diagram name="PÃ¡gina-1" id="TTKogcGD4z5FTuP57lo0">
    <mxGraphModel grid="1" page="1" gridSize="10" guides="1" tooltips="1" connect="1" arrows="1" fold="1" pageScale="1" pageWidth="827" pageHeight="1169" math="0" shadow="0">
      <root>
        <mxCell id="0" />
        <mxCell id="1" parent="0" />
        <mxCell id="YVRg--H7OIu5j2uh-uVB-1" value="" style="html=1;verticalAlign=bottom;startArrow=oval;startFill=1;endArrow=block;startSize=8;curved=0;rounded=0;" edge="1" parent="1">
          <mxGeometry width="60" relative="1" as="geometry">
            <mxPoint x="460" y="100" as="sourcePoint" />
            <mxPoint x="460" y="180" as="targetPoint" />
          </mxGeometry>
        </mxCell>
        <mxCell id="YVRg--H7OIu5j2uh-uVB-2" style="edgeStyle=orthogonalEdgeStyle;rounded=0;orthogonalLoop=1;jettySize=auto;html=1;" edge="1" parent="1" source="YVRg--H7OIu5j2uh-uVB-3" target="YVRg--H7OIu5j2uh-uVB-6">
          <mxGeometry relative="1" as="geometry" />
        </mxCell>
        <mxCell id="YVRg--H7OIu5j2uh-uVB-3" value="Ref" style="shape=umlFrame;whiteSpace=wrap;html=1;pointerEvents=0;" vertex="1" parent="1">
          <mxGeometry x="350" y="180" width="250" height="90" as="geometry" />
        </mxCell>
        <mxCell id="YVRg--H7OIu5j2uh-uVB-4" value="Buacar recurso" style="text;html=1;align=center;verticalAlign=middle;resizable=0;points=[];autosize=1;strokeColor=none;fillColor=none;" vertex="1" parent="1">
          <mxGeometry x="410" y="218" width="100" height="30" as="geometry" />
        </mxCell>
        <mxCell id="YVRg--H7OIu5j2uh-uVB-5" style="edgeStyle=orthogonalEdgeStyle;rounded=0;orthogonalLoop=1;jettySize=auto;html=1;" edge="1" parent="1" source="YVRg--H7OIu5j2uh-uVB-6" target="YVRg--H7OIu5j2uh-uVB-9">
          <mxGeometry relative="1" as="geometry" />
        </mxCell>
        <mxCell id="YVRg--H7OIu5j2uh-uVB-6" value="Ref" style="shape=umlFrame;whiteSpace=wrap;html=1;pointerEvents=0;" vertex="1" parent="1">
          <mxGeometry x="350" y="360" width="250" height="90" as="geometry" />
        </mxCell>
        <mxCell id="YVRg--H7OIu5j2uh-uVB-7" value="Ver listado de recursos" style="text;html=1;align=center;verticalAlign=middle;resizable=0;points=[];autosize=1;strokeColor=none;fillColor=none;" vertex="1" parent="1">
          <mxGeometry x="385" y="398" width="150" height="30" as="geometry" />
        </mxCell>
        <mxCell id="YVRg--H7OIu5j2uh-uVB-8" style="edgeStyle=orthogonalEdgeStyle;rounded=0;orthogonalLoop=1;jettySize=auto;html=1;" edge="1" parent="1" source="YVRg--H7OIu5j2uh-uVB-9" target="YVRg--H7OIu5j2uh-uVB-14">
          <mxGeometry relative="1" as="geometry" />
        </mxCell>
        <mxCell id="YVRg--H7OIu5j2uh-uVB-9" value="" style="rhombus;whiteSpace=wrap;html=1;" vertex="1" parent="1">
          <mxGeometry x="443.5" y="530" width="63" height="50" as="geometry" />
        </mxCell>
        <mxCell id="YVRg--H7OIu5j2uh-uVB-10" style="edgeStyle=orthogonalEdgeStyle;rounded=0;orthogonalLoop=1;jettySize=auto;html=1;" edge="1" parent="1" source="YVRg--H7OIu5j2uh-uVB-11" target="YVRg--H7OIu5j2uh-uVB-19">
          <mxGeometry relative="1" as="geometry" />
        </mxCell>
        <mxCell id="YVRg--H7OIu5j2uh-uVB-11" value="Sd cuenta&amp;nbsp;" style="shape=umlFrame;whiteSpace=wrap;html=1;pointerEvents=0;" vertex="1" parent="1">
          <mxGeometry x="-90" y="620" width="490" height="320" as="geometry" />
        </mxCell>
        <mxCell id="YVRg--H7OIu5j2uh-uVB-12" value="registrar recurso" style="text;html=1;align=center;verticalAlign=middle;resizable=0;points=[];autosize=1;strokeColor=none;fillColor=none;" vertex="1" parent="1">
          <mxGeometry x="100" y="791" width="110" height="30" as="geometry" />
        </mxCell>
        <mxCell id="YVRg--H7OIu5j2uh-uVB-13" style="edgeStyle=orthogonalEdgeStyle;rounded=0;orthogonalLoop=1;jettySize=auto;html=1;entryX=0.5;entryY=0;entryDx=0;entryDy=0;" edge="1" parent="1" source="YVRg--H7OIu5j2uh-uVB-14" target="YVRg--H7OIu5j2uh-uVB-19">
          <mxGeometry relative="1" as="geometry" />
        </mxCell>
        <mxCell id="YVRg--H7OIu5j2uh-uVB-14" value="Sd edicion" style="shape=umlFrame;whiteSpace=wrap;html=1;pointerEvents=0;" vertex="1" parent="1">
          <mxGeometry x="550" y="620" width="470" height="320" as="geometry" />
        </mxCell>
        <mxCell id="YVRg--H7OIu5j2uh-uVB-15" value="editar recurso" style="text;html=1;align=center;verticalAlign=middle;resizable=0;points=[];autosize=1;strokeColor=none;fillColor=none;" vertex="1" parent="1">
          <mxGeometry x="750" y="801" width="100" height="30" as="geometry" />
        </mxCell>
        <mxCell id="YVRg--H7OIu5j2uh-uVB-16" value="Ref" style="shape=umlFrame;whiteSpace=wrap;html=1;pointerEvents=0;" vertex="1" parent="1">
          <mxGeometry x="352" y="1210" width="250" height="90" as="geometry" />
        </mxCell>
        <mxCell id="YVRg--H7OIu5j2uh-uVB-17" value="asignar a evento&amp;nbsp;" style="text;html=1;align=center;verticalAlign=middle;resizable=0;points=[];autosize=1;strokeColor=none;fillColor=none;" vertex="1" parent="1">
          <mxGeometry x="415" y="1240" width="120" height="30" as="geometry" />
        </mxCell>
        <mxCell id="YVRg--H7OIu5j2uh-uVB-18" style="edgeStyle=orthogonalEdgeStyle;rounded=0;orthogonalLoop=1;jettySize=auto;html=1;entryX=0.447;entryY=0.013;entryDx=0;entryDy=0;entryPerimeter=0;" edge="1" parent="1" source="YVRg--H7OIu5j2uh-uVB-9" target="YVRg--H7OIu5j2uh-uVB-11">
          <mxGeometry relative="1" as="geometry" />
        </mxCell>
        <mxCell id="YVRg--H7OIu5j2uh-uVB-19" value="" style="rounded=0;whiteSpace=wrap;html=1;" vertex="1" parent="1">
          <mxGeometry x="412" y="1090" width="120" height="20" as="geometry" />
        </mxCell>
        <mxCell id="YVRg--H7OIu5j2uh-uVB-20" style="edgeStyle=orthogonalEdgeStyle;rounded=0;orthogonalLoop=1;jettySize=auto;html=1;entryX=0.479;entryY=0.042;entryDx=0;entryDy=0;entryPerimeter=0;" edge="1" parent="1" source="YVRg--H7OIu5j2uh-uVB-19" target="YVRg--H7OIu5j2uh-uVB-16">
          <mxGeometry relative="1" as="geometry" />
        </mxCell>
        <mxCell id="YVRg--H7OIu5j2uh-uVB-21" style="edgeStyle=orthogonalEdgeStyle;rounded=0;orthogonalLoop=1;jettySize=auto;html=1;" edge="1" parent="1" source="YVRg--H7OIu5j2uh-uVB-22" target="YVRg--H7OIu5j2uh-uVB-25">
          <mxGeometry relative="1" as="geometry" />
        </mxCell>
        <mxCell id="YVRg--H7OIu5j2uh-uVB-22" value="Ref" style="shape=umlFrame;whiteSpace=wrap;html=1;pointerEvents=0;" vertex="1" parent="1">
          <mxGeometry x="350" y="1430" width="250" height="90" as="geometry" />
        </mxCell>
        <mxCell id="YVRg--H7OIu5j2uh-uVB-23" value="Actualizar recursos" style="text;html=1;align=center;verticalAlign=middle;resizable=0;points=[];autosize=1;strokeColor=none;fillColor=none;" vertex="1" parent="1">
          <mxGeometry x="408" y="1460" width="130" height="30" as="geometry" />
        </mxCell>
        <mxCell id="YVRg--H7OIu5j2uh-uVB-24" style="edgeStyle=orthogonalEdgeStyle;rounded=0;orthogonalLoop=1;jettySize=auto;html=1;entryX=0.51;entryY=0.007;entryDx=0;entryDy=0;entryPerimeter=0;" edge="1" parent="1" source="YVRg--H7OIu5j2uh-uVB-16" target="YVRg--H7OIu5j2uh-uVB-22">
          <mxGeometry relative="1" as="geometry" />
        </mxCell>
        <mxCell id="YVRg--H7OIu5j2uh-uVB-25" value="" style="ellipse;html=1;shape=endState;fillColor=#000000;strokeColor=#ff0000;" vertex="1" parent="1">
          <mxGeometry x="460" y="1650" width="30" height="30" as="geometry" />
        </mxCell>
        <mxCell id="YVRg--H7OIu5j2uh-uVB-26" value="cliente&amp;nbsp;" style="shape=umlLifeline;perimeter=lifelinePerimeter;whiteSpace=wrap;html=1;container=1;dropTarget=0;collapsible=0;recursiveResize=0;outlineConnect=0;portConstraint=eastwest;newEdgeStyle={&quot;curved&quot;:0,&quot;rounded&quot;:0};" vertex="1" parent="1">
          <mxGeometry x="-40" y="710" width="80" height="192" as="geometry" />
        </mxCell>
        <mxCell id="YVRg--H7OIu5j2uh-uVB-27" value="sistema&amp;nbsp;" style="shape=umlLifeline;perimeter=lifelinePerimeter;whiteSpace=wrap;html=1;container=1;dropTarget=0;collapsible=0;recursiveResize=0;outlineConnect=0;portConstraint=eastwest;newEdgeStyle={&quot;curved&quot;:0,&quot;rounded&quot;:0};" vertex="1" parent="1">
          <mxGeometry x="260" y="720" width="80" height="192" as="geometry" />
        </mxCell>
        <mxCell id="YVRg--H7OIu5j2uh-uVB-30" value="" style="html=1;points=[[0,0,0,0,5],[0,1,0,0,-5],[1,0,0,0,5],[1,1,0,0,-5]];perimeter=orthogonalPerimeter;outlineConnect=0;targetShapes=umlLifeline;portConstraint=eastwest;newEdgeStyle={&quot;curved&quot;:0,&quot;rounded&quot;:0};" vertex="1" parent="YVRg--H7OIu5j2uh-uVB-27">
          <mxGeometry x="30" y="102" width="10" height="80" as="geometry" />
        </mxCell>
        <mxCell id="YVRg--H7OIu5j2uh-uVB-28" value="cliente&amp;nbsp;" style="shape=umlLifeline;perimeter=lifelinePerimeter;whiteSpace=wrap;html=1;container=1;dropTarget=0;collapsible=0;recursiveResize=0;outlineConnect=0;portConstraint=eastwest;newEdgeStyle={&quot;curved&quot;:0,&quot;rounded&quot;:0};" vertex="1" parent="1">
          <mxGeometry x="590" y="730" width="80" height="192" as="geometry" />
        </mxCell>
        <mxCell id="YVRg--H7OIu5j2uh-uVB-29" value="sistema" style="shape=umlLifeline;perimeter=lifelinePerimeter;whiteSpace=wrap;html=1;container=1;dropTarget=0;collapsible=0;recursiveResize=0;outlineConnect=0;portConstraint=eastwest;newEdgeStyle={&quot;curved&quot;:0,&quot;rounded&quot;:0};" vertex="1" parent="1">
          <mxGeometry x="920" y="720" width="80" height="192" as="geometry" />
        </mxCell>
        <mxCell id="YVRg--H7OIu5j2uh-uVB-32" value="" style="html=1;points=[[0,0,0,0,5],[0,1,0,0,-5],[1,0,0,0,5],[1,1,0,0,-5]];perimeter=orthogonalPerimeter;outlineConnect=0;targetShapes=umlLifeline;portConstraint=eastwest;newEdgeStyle={&quot;curved&quot;:0,&quot;rounded&quot;:0};" vertex="1" parent="YVRg--H7OIu5j2uh-uVB-29">
          <mxGeometry x="35" y="112" width="10" height="80" as="geometry" />
        </mxCell>
        <mxCell id="YVRg--H7OIu5j2uh-uVB-31" value="" style="html=1;verticalAlign=bottom;startArrow=oval;endArrow=block;startSize=8;curved=0;rounded=0;entryX=0;entryY=0;entryDx=0;entryDy=5;" edge="1" parent="1" target="YVRg--H7OIu5j2uh-uVB-30">
          <mxGeometry relative="1" as="geometry">
            <mxPoint y="827" as="sourcePoint" />
          </mxGeometry>
        </mxCell>
        <mxCell id="YVRg--H7OIu5j2uh-uVB-33" value="" style="html=1;verticalAlign=bottom;startArrow=oval;endArrow=block;startSize=8;curved=0;rounded=0;entryX=0;entryY=0;entryDx=0;entryDy=5;" edge="1" parent="1" target="YVRg--H7OIu5j2uh-uVB-32">
          <mxGeometry relative="1" as="geometry">
            <mxPoint x="630" y="847" as="sourcePoint" />
          </mxGeometry>
        </mxCell>
      </root>
    </mxGraphModel>
  </diagram>
</mxfile>
